<?xml version="1.0" standalone="no"?><!DOCTYPE svg PUBLIC "-//W3C//DTD SVG 1.1//EN" "http://www.w3.org/Graphics/SVG/1.1/DTD/svg11.dtd"><svg t="1608544650712" class="icon" viewBox="0 0 1024 1024" version="1.1" xmlns="http://www.w3.org/2000/svg" p-id="3717" xmlns:xlink="http://www.w3.org/1999/xlink" width="200" height="200"><defs><style type="text/css"></style></defs><path d="M324.923077 984.615385c-59.076923 0-108.307692-49.230769-108.307692-108.307693V472.615385l-53.169231-70.892308c-3.938462-5.907692-5.907692-11.815385-5.907692-17.723077v-315.076923C157.538462 53.169231 171.323077 39.384615 187.076923 39.384615s29.538462 13.784615 29.538462 29.538462V374.153846l53.16923 70.892308c3.938462 5.907692 5.907692 11.815385 5.907693 17.723077v413.538461c0 27.569231 21.661538 49.230769 49.230769 49.23077s49.230769-21.661538 49.230769-49.23077v-413.538461c0-5.907692 1.969231-11.815385 5.907692-17.723077L433.230769 374.153846V68.923077c0-15.753846 13.784615-29.538462 29.538462-29.538462s29.538462 13.784615 29.538461 29.538462v315.076923c0 5.907692-1.969231 11.815385-5.907692 17.723077L433.230769 472.615385v403.692307c0 59.076923-49.230769 108.307692-108.307692 108.307693z" fill="#4069FF" p-id="3718"></path><path d="M285.538462 275.692308c-15.753846 0-29.538462-13.784615-29.538462-29.538462v-177.230769c0-15.753846 13.784615-29.538462 29.538462-29.538462s29.538462 13.784615 29.538461 29.538462v177.230769c0 15.753846-13.784615 29.538462-29.538461 29.538462zM364.307692 275.692308c-15.753846 0-29.538462-13.784615-29.538461-29.538462v-177.230769c0-15.753846 13.784615-29.538462 29.538461-29.538462s29.538462 13.784615 29.538462 29.538462v177.230769c0 15.753846-13.784615 29.538462-29.538462 29.538462z" fill="#12B9FF" p-id="3719"></path><path d="M758.153846 984.615385c-59.076923 0-108.307692-49.230769-108.307692-108.307693v-145.723077l-110.276923-129.96923c-3.938462-5.907692-7.876923-11.815385-7.876923-19.692308v-374.153846C531.692308 114.215385 606.523077 39.384615 699.076923 39.384615S866.461538 114.215385 866.461538 206.769231v669.538461c0 59.076923-49.230769 108.307692-108.307692 108.307693zM590.769231 569.107692l110.276923 129.969231c3.938462 5.907692 7.876923 11.815385 7.876923 19.692308v157.538461c0 27.569231 21.661538 49.230769 49.230769 49.23077s49.230769-21.661538 49.230769-49.23077v-669.538461c0-59.076923-49.230769-108.307692-108.307692-108.307693S590.769231 147.692308 590.769231 206.769231v362.338461z" fill="#4069FF" p-id="3720"></path><path d="M699.076923 118.153846C748.307692 118.153846 787.692308 157.538462 787.692308 206.769231v669.538461c0 15.753846-13.784615 29.538462-29.538462 29.538462s-29.538462-13.784615-29.538461-29.538462v-157.538461c0-11.815385-3.938462-23.630769-11.815385-31.507693L610.461538 563.2V206.769231C610.461538 157.538462 649.846154 118.153846 699.076923 118.153846" fill="#E6F3FF" p-id="3721"></path></svg>