<?xml version="1.0" standalone="no"?><!DOCTYPE svg PUBLIC "-//W3C//DTD SVG 1.1//EN" "http://www.w3.org/Graphics/SVG/1.1/DTD/svg11.dtd"><svg t="1608544597115" class="icon" viewBox="0 0 1024 1024" version="1.1" xmlns="http://www.w3.org/2000/svg" p-id="3145" xmlns:xlink="http://www.w3.org/1999/xlink" width="200" height="200"><defs><style type="text/css"></style></defs><path d="M563.2 187.6c-70.1 0-126.9 56.8-126.9 126.9h253.8c0-70.1-56.8-126.9-126.9-126.9z" fill="#66E3AA" p-id="3146"></path><path d="M548.9 314.5c-13.7-44.2-55-76.4-103.8-76.4s-90 32.1-103.8 76.4h207.6z" fill="#66E3AA" p-id="3147"></path><path d="M905.4 464.2H120.6V309h784.8v155.2z m-736.8-48h688.8V357H168.6v59.2z" fill="#0071BC" p-id="3148"></path><path d="M766.6 861.6H259.4c-19.7 0-38.5-7.4-53-20.9-14.4-13.4-23.1-31.7-24.5-51.3l-25.2-367.7H869l-25.2 367.6c-2.6 40.6-36.6 72.3-77.2 72.3zM208.2 469.7l21.6 316.4c1.1 15.4 14.1 27.5 29.6 27.5h507.2c15.5 0 28.4-12.1 29.5-27.5l21.6-316.4H208.2zM178.714 319.094L291.815 160.61l39.072 27.883-113.101 158.486zM710.809 188.38l39.072-27.884 113.101 158.486-39.072 27.883z" fill="#0071BC" p-id="3149"></path><path d="M291.8 511.6h48v251.3h-48zM423.3 511.6h48v251.3h-48zM554.7 511.6h48v251.3h-48zM686.2 511.6h48v251.3h-48z" fill="#0071BC" p-id="3150"></path></svg>