<?xml version="1.0" standalone="no"?><!DOCTYPE svg PUBLIC "-//W3C//DTD SVG 1.1//EN" "http://www.w3.org/Graphics/SVG/1.1/DTD/svg11.dtd"><svg t="1608544724255" class="icon" viewBox="0 0 1024 1024" version="1.1" xmlns="http://www.w3.org/2000/svg" p-id="5779" xmlns:xlink="http://www.w3.org/1999/xlink" width="200" height="200"><defs><style type="text/css"></style></defs><path d="M512 98.228c-228.201 0-413.657 185.457-413.657 413.657 0 105.712 39.987 202.462 105.712 275.772 14.708 16.546 31.025 31.944 48.491 45.962h47.799l-7.813 28.496-9.652 34.471c-3.448 12.179 3.906 24.82 16.086 28.266 2.069 0.46 4.136 0.92 5.975 0.92 10.112 0 19.535-6.665 22.292-17.007l6.664-23.67 12.409-45.273 1.609-6.204h328.169l1.609 6.204 12.409 45.273 6.664 23.67c2.758 10.342 11.951 17.007 22.062 17.007 2.069 0 4.136-0.46 6.205-0.92 12.179-3.446 19.303-16.087 15.857-28.266l-9.423-34.471-8.043-28.496h48.029c17.466-14.018 33.553-29.416 48.491-45.962 65.725-73.309 105.712-170.06 105.712-275.772C925.657 283.684 739.971 98.228 512 98.228zM360.785 787.657l12.639-46.192c2.299 0.23 4.596 0.23 6.895 0.23H643.68c2.299 0 4.596 0 6.895-0.23l12.639 46.192H360.785z m282.895-91.924H380.319c-31.484 0-75.148-26.429-75.148-50.328l3.676-41.596H715.38l3.448 39.757c0.001 25.738-43.664 52.167-75.148 52.167zM466.038 279.776v-18.384c0-1.149 1.149-2.298 2.298-2.298h87.329c1.149 0 2.297 1.149 2.297 2.298v18.384c0 1.15-1.149 2.299-2.297 2.299h-87.329c-1.149 0-2.298-1.148-2.298-2.299z m2.298 48.261h175.345c26.199 0 47.801 19.303 51.477 45.962H328.612c2.988-25.739 25.048-45.962 51.707-45.962h88.017z m242.909 229.81H534.981V419.961h164.084l12.18 137.886z m-386.54-137.886h164.314v137.886H312.755l11.95-137.886z m429.974 367.696h-43.893l-15.857-57.452c37.918-16.547 69.862-49.64 69.862-88.706L741.81 380.203c0-54.005-44.123-98.128-98.129-98.128h-39.757v-20.683c0-26.657-21.602-48.259-48.259-48.259h-87.329c-26.657 0-48.259 21.602-48.259 48.259v20.683H380.32c-54.006 0-98.129 44.123-98.129 96.29l-22.981 265.2c0 37.689 31.714 70.322 69.633 86.639l-15.857 57.452h-43.664c-76.527-67.105-125.017-165.923-125.017-275.772 0-202.692 165.003-367.695 367.695-367.695s367.695 165.003 367.695 367.695c0 109.849-48.489 208.667-125.016 275.773z" fill="#4a900b" p-id="5780"></path><path d="M443.057 626.79h-45.962c-12.691 0-22.981 10.279-22.981 22.981 0 12.702 10.29 22.981 22.981 22.981h45.962c12.691 0 22.981-10.279 22.981-22.981 0-12.703-10.29-22.981-22.981-22.981zM626.905 626.79h-45.962c-12.702 0-22.981 10.279-22.981 22.981 0 12.702 10.279 22.981 22.981 22.981h45.962c12.702 0 22.981-10.279 22.981-22.981 0-12.703-10.279-22.981-22.981-22.981z" fill="#4a900b" p-id="5781"></path></svg>